<svg width="100" height="30" viewBox="0 0 100 30" fill="none" xmlns="http://www.w3.org/2000/svg">
<path fill-rule="evenodd" clip-rule="evenodd" d="M96.2963 0H3.7037C1.66667 0 0 1.6875 0 3.75V26.25C0 28.3125 1.66667 30 3.7037 30H96.2963C98.3333 30 100 28.3125 100 26.25V3.75C100 1.6875 98.3333 0 96.2963 0Z" fill="white"/>
<path fill-rule="evenodd" clip-rule="evenodd" d="M96.2963 0H3.7037C1.66667 0 0 1.6875 0 3.75V26.25C0 28.3125 1.66667 30 3.7037 30H96.2963C98.3333 30 100 28.3125 100 26.25V3.75C100 1.6875 98.3333 0 96.2963 0ZM96.2963 0.6C98.0119 0.6 99.4074 2.013 99.4074 3.75V26.25C99.4074 27.987 98.0119 29.4 96.2963 29.4H3.7037C1.98815 29.4 0.592593 27.987 0.592593 26.25V3.75C0.592593 2.013 1.98815 0.6 3.7037 0.6H96.2963Z" fill="#9E9F9B"/>
<path fill-rule="evenodd" clip-rule="evenodd" d="M35.1252 7.68216C35.1252 8.31066 34.9407 8.81166 34.5726 9.18441C34.1548 9.62841 33.6104 9.85041 32.94 9.85041C32.2985 9.85041 31.7533 9.62541 31.3044 9.17466C30.8555 8.72466 30.6311 8.16591 30.6311 7.49991C30.6311 6.83316 30.8555 6.27516 31.3044 5.82516C31.7533 5.37441 32.2985 5.14941 32.94 5.14941C33.2585 5.14941 33.563 5.21241 33.8526 5.33766C34.1415 5.46366 34.3741 5.63091 34.5474 5.84091L34.157 6.23616C33.8622 5.88066 33.4578 5.70291 32.94 5.70291C32.4718 5.70291 32.0681 5.86866 31.7267 6.20241C31.3852 6.53541 31.2141 6.96816 31.2141 7.49991C31.2141 8.03166 31.3852 8.46441 31.7267 8.79741C32.0681 9.13116 32.4718 9.29691 32.94 9.29691C33.4363 9.29691 33.8504 9.12966 34.1815 8.79516C34.3963 8.57691 34.5207 8.27316 34.5541 7.88316H32.94V7.34316H35.0941C35.1148 7.46016 35.1252 7.57341 35.1252 7.68216Z" fill="#9E9F9B"/>
<path fill-rule="evenodd" clip-rule="evenodd" d="M35.1252 7.68221H35.0511C35.0503 8.29646 34.8733 8.77346 34.5207 9.13121L34.52 9.13196L34.5192 9.13271C34.1148 9.56096 33.594 9.77471 32.94 9.77546C32.3155 9.77471 31.7933 9.55871 31.357 9.12146C30.9215 8.68421 30.7059 8.14946 30.7052 7.49996C30.7059 6.85046 30.9215 6.31571 31.357 5.87846C31.7933 5.44121 32.3155 5.22521 32.94 5.22446C33.2489 5.22446 33.5429 5.28521 33.8229 5.40671C34.1037 5.52896 34.3259 5.68946 34.4911 5.88896L34.5474 5.84096L34.4948 5.78771L34.1044 6.18371L34.157 6.23621L34.2133 6.18821C33.9059 5.81471 33.4733 5.62646 32.94 5.62796C32.4548 5.62721 32.0281 5.80271 31.6748 6.14846C31.3185 6.49496 31.1392 6.95171 31.14 7.49996C31.1392 8.04821 31.3185 8.50496 31.6748 8.85146C32.0281 9.19721 32.4548 9.37271 32.94 9.37271C33.4526 9.37346 33.8896 9.19721 34.234 8.84771C34.4637 8.61446 34.594 8.29196 34.6281 7.88996L34.6348 7.80821H33.014V7.41746H35.094V7.34321L35.0207 7.35596C35.0407 7.46996 35.0511 7.57796 35.0511 7.68221H35.1992C35.1992 7.56821 35.1881 7.45121 35.1666 7.32971L35.1555 7.26821H32.8659V7.95821H34.554V7.88321L34.48 7.87721C34.4474 8.25446 34.3289 8.53871 34.1289 8.74196C33.8103 9.06296 33.42 9.22196 32.94 9.22271C32.4896 9.22196 32.1074 9.06446 31.7777 8.74421C31.4511 8.42396 31.2889 8.01596 31.2881 7.49996C31.2889 6.98396 31.4511 6.57596 31.7777 6.25571C32.1074 5.93546 32.4896 5.77796 32.94 5.77796C33.4415 5.77871 33.8192 5.94671 34.1 6.28496L34.1518 6.34721L34.6 5.89346L34.6481 5.84546L34.6044 5.79221C34.4222 5.57246 34.1792 5.39846 33.8815 5.26871C33.5829 5.13971 33.2681 5.07446 32.94 5.07446C32.2815 5.07371 31.7133 5.30771 31.2526 5.77196C30.7896 6.23471 30.5563 6.81671 30.557 7.49996C30.5563 8.18321 30.7896 8.76521 31.2526 9.22871C31.7133 9.69221 32.2815 9.92621 32.94 9.92546C33.6259 9.92621 34.1948 9.69521 34.6266 9.23621L34.5726 9.18446L34.6252 9.23771C35.0089 8.84921 35.1992 8.32496 35.1992 7.68221H35.1252Z" fill="#9E9F9B"/>
<path fill-rule="evenodd" clip-rule="evenodd" d="M38.5392 5.80275H36.5147V7.23H38.3399V7.77H36.5147V9.19725H38.5392V9.75H35.9443V5.25H38.5392V5.80275Z" fill="#9E9F9B"/>
<path fill-rule="evenodd" clip-rule="evenodd" d="M38.5393 5.8028V5.7278H36.4407V7.30505H38.2659V7.69505H36.4407V9.2723H38.4652V9.67505H36.0185V5.32505H38.4652V5.8028H38.5393V5.7278V5.8028H38.6133V5.17505H35.8704V9.82505H38.6133V9.1223H36.5889V7.84505H38.4141V7.15505H36.5889V5.8778H38.6133V5.8028H38.5393Z" fill="#9E9F9B"/>
<path fill-rule="evenodd" clip-rule="evenodd" d="M40.9474 9.75H40.3755V5.80275H39.1348V5.25H42.1888V5.80275H40.9474V9.75Z" fill="#9E9F9B"/>
<path fill-rule="evenodd" clip-rule="evenodd" d="M40.9475 9.75005V9.67505H40.4497V5.7278H39.2082V5.32505H42.1149V5.7278H40.8734V9.75005H40.9475V9.67505V9.75005H41.0215V5.8778H42.263V5.17505H39.0601V5.8778H40.3015V9.82505H41.0215V9.75005H40.9475Z" fill="#9E9F9B"/>
<path fill-rule="evenodd" clip-rule="evenodd" d="M44.3985 9.75H44.9696V5.25H44.3985V9.75Z" fill="#9E9F9B"/>
<path fill-rule="evenodd" clip-rule="evenodd" d="M44.3985 9.75005H44.4726V5.32505H44.8948V9.67505H44.3985V9.75005H44.4726H44.3985V9.82505H45.0437V5.17505H44.3245V9.82505H44.3985V9.75005Z" fill="#9E9F9B"/>
<path fill-rule="evenodd" clip-rule="evenodd" d="M47.5022 9.75H46.9311V5.80275H45.6896V5.25H48.7436V5.80275H47.5022V9.75Z" fill="#9E9F9B"/>
<path fill-rule="evenodd" clip-rule="evenodd" d="M47.5023 9.75005V9.67505H47.0052V5.7278H45.7637V5.32505H48.6697V5.7278H47.4282V9.75005H47.5023V9.67505V9.75005H47.5763V5.8778H48.8178V5.17505H45.6156V5.8778H46.8571V9.82505H47.5763V9.75005H47.5023Z" fill="#9E9F9B"/>
<path fill-rule="evenodd" clip-rule="evenodd" d="M51.6881 8.79141C52.0177 9.12891 52.42 9.29691 52.8955 9.29691C53.3718 9.29691 53.7748 9.12891 54.1029 8.79141C54.4318 8.45391 54.597 8.02341 54.597 7.49991C54.597 6.97641 54.4318 6.54591 54.1029 6.20841C53.7748 5.87091 53.3718 5.70291 52.8955 5.70291C52.42 5.70291 52.0177 5.87091 51.6881 6.20841C51.36 6.54591 51.1948 6.97641 51.1948 7.49991C51.1948 8.02341 51.36 8.45391 51.6881 8.79141ZM54.5251 9.16866C54.0889 9.62316 53.5451 9.85041 52.8955 9.85041C52.2459 9.85041 51.7029 9.62316 51.2666 9.16866C50.8296 8.71416 50.6118 8.15766 50.6118 7.49991C50.6118 6.84216 50.8296 6.28566 51.2666 5.83116C51.7029 5.37666 52.2459 5.14941 52.8955 5.14941C53.5414 5.14941 54.0837 5.37741 54.5222 5.83416C54.9607 6.29091 55.18 6.84591 55.18 7.49991C55.18 8.15766 54.9614 8.71416 54.5251 9.16866Z" fill="#9E9F9B"/>
<path fill-rule="evenodd" clip-rule="evenodd" d="M51.6881 8.79146L51.6355 8.84396C51.977 9.19496 52.4022 9.37346 52.8955 9.37271C53.3888 9.37346 53.8148 9.19496 54.1555 8.84396C54.4992 8.49371 54.6718 8.03921 54.6711 7.49996C54.6718 6.96071 54.4992 6.50696 54.1555 6.15596C53.8148 5.80496 53.3888 5.62721 52.8955 5.62796C52.4022 5.62721 51.977 5.80496 51.6355 6.15596C51.2933 6.50696 51.1199 6.96071 51.1207 7.49996C51.1199 8.03921 51.2933 8.49371 51.6355 8.84396L51.7414 8.73896C51.4266 8.41571 51.2696 8.00771 51.2688 7.49996C51.2696 6.99221 51.4266 6.58421 51.7414 6.26096H51.7407C52.0585 5.93696 52.437 5.77871 52.8955 5.77796C53.3548 5.77871 53.734 5.93696 54.0503 6.26096C54.3651 6.58496 54.5222 6.99221 54.5229 7.49996C54.5222 8.00771 54.3651 8.41496 54.0503 8.73896C53.734 9.06296 53.3548 9.22196 52.8955 9.22271C52.437 9.22121 52.0585 9.06296 51.7407 8.73896L51.6881 8.79146ZM54.5251 9.16871L54.4725 9.11621C54.0481 9.55721 53.5281 9.77471 52.8955 9.77546C52.2629 9.77471 51.7436 9.55721 51.3199 9.11621L51.3177 9.11396L51.3199 9.11621C50.8962 8.67446 50.6866 8.14121 50.6859 7.49996C50.6866 6.85871 50.8962 6.32546 51.3199 5.88371C51.7436 5.44271 52.2629 5.22521 52.8955 5.22446C53.5244 5.22521 54.0422 5.44421 54.4696 5.88671C54.8948 6.33071 55.1051 6.86321 55.1059 7.49996C55.1051 8.14121 54.8955 8.67446 54.4725 9.11621L54.5785 9.22046C55.0281 8.75396 55.2548 8.17421 55.254 7.49996C55.2548 6.82946 55.0266 6.25121 54.5755 5.78246C54.1244 5.31146 53.5585 5.07371 52.8955 5.07446C52.2288 5.07371 51.6622 5.31071 51.2133 5.77946C50.7636 6.24671 50.537 6.82571 50.5377 7.49996C50.537 8.17421 50.7636 8.75396 51.2133 9.22046L51.2155 9.22271L51.2133 9.22046C51.6622 9.68996 52.2288 9.92621 52.8955 9.92546C53.5622 9.92621 54.1296 9.68996 54.5785 9.22046L54.5251 9.16871Z" fill="#9E9F9B"/>
<path fill-rule="evenodd" clip-rule="evenodd" d="M55.9814 9.75V5.25H56.677L58.837 8.75025H58.8614L58.837 7.88325V5.25H59.4081V9.75H58.8118L56.5526 6.0795H56.5274L56.5526 6.94725V9.75H55.9814Z" fill="#9E9F9B"/>
<path fill-rule="evenodd" clip-rule="evenodd" d="M55.9814 9.75005H56.0555V5.32505H56.6355L58.7955 8.82605H58.9377L58.9111 7.88255V5.32505H59.334V9.67505H58.8533L56.5933 6.00455H56.4518L56.4785 6.94805V9.67505H55.9814V9.75005H56.0555H55.9814V9.82505H56.6266V6.9458L56.6014 6.07805L56.5273 6.07955V6.15455H56.5525V6.07955L56.4896 6.1193L58.7711 9.82505H59.4822V5.17505H58.7629V7.8848L58.7873 8.75255L58.8614 8.7503V8.67605H58.837V8.7503L58.8999 8.7113L56.7177 5.17505H55.9073V9.82505H55.9814V9.75005Z" fill="#9E9F9B"/>
<path fill-rule="evenodd" clip-rule="evenodd" d="M79.2117 22.4999H80.594V13.1242H79.2117V22.4999ZM91.6614 16.5014L90.0769 20.5664H90.0295L88.3851 16.5014H86.8962L89.3621 22.1827L87.9562 25.3432H89.3984L93.1984 16.5014H91.6614ZM83.8227 21.4349C83.3694 21.4349 82.7383 21.2062 82.7383 20.6392C82.7383 19.9154 83.5249 19.6379 84.2035 19.6379C84.8116 19.6379 85.0968 19.7707 85.4664 19.9514C85.359 20.8199 84.6205 21.4349 83.8227 21.4349ZM83.9895 16.2967C82.9888 16.2967 81.9525 16.7429 81.5236 17.7322L82.7503 18.2504C83.0125 17.7322 83.5006 17.5627 84.0132 17.5627C84.728 17.5627 85.4547 17.9969 85.4666 18.7694V18.8654C85.2162 18.7207 84.6806 18.5039 84.0251 18.5039C82.7029 18.5039 81.3562 19.2397 81.3562 20.6144C81.3562 21.8692 82.4406 22.6777 83.6554 22.6777C84.5851 22.6777 85.0969 22.2554 85.4191 21.7604H85.4666V22.4842H86.8006V18.8902C86.8006 17.2252 85.574 16.2967 83.9895 16.2967ZM75.4473 17.6429H73.4814V14.4292H75.4473C76.4806 14.4292 77.0673 15.2954 77.0673 16.0357C77.0673 16.7624 76.4806 17.6429 75.4473 17.6429ZM75.4117 13.1242H72.0999V22.4999H73.4814V18.9479H75.4117C76.9436 18.9479 78.4495 17.8244 78.4495 16.0357C78.4495 14.2469 76.9436 13.1242 75.4117 13.1242ZM57.3517 21.4364C56.3969 21.4364 55.5977 20.6272 55.5977 19.5157C55.5977 18.3922 56.3969 17.5702 57.3517 17.5702C58.2947 17.5702 59.034 18.3922 59.034 19.5157C59.034 20.6272 58.2947 21.4364 57.3517 21.4364ZM58.9384 17.0264H58.891C58.5806 16.6522 57.9843 16.3139 57.2325 16.3139C55.6569 16.3139 54.2132 17.7149 54.2132 19.5157C54.2132 21.3037 55.6569 22.6934 57.2325 22.6934C57.9843 22.6934 58.5806 22.3552 58.891 21.9682H58.9384V22.4272C58.9384 23.6482 58.2947 24.3007 57.2562 24.3007C56.4088 24.3007 55.8836 23.6842 55.6688 23.1644L54.4636 23.6722C54.8095 24.5182 55.7288 25.5569 57.2562 25.5569C58.8791 25.5569 60.2517 24.5902 60.2517 22.2344V16.5067H58.9384V17.0264ZM61.2066 22.4999H62.591V13.1234H61.2066V22.4999ZM64.631 19.4069C64.5954 18.1747 65.574 17.5462 66.2777 17.5462C66.8273 17.5462 67.2925 17.8237 67.4473 18.2227L64.631 19.4069ZM68.9272 18.3434C68.665 17.6309 67.865 16.3139 66.2301 16.3139C64.6072 16.3139 63.259 17.6062 63.259 19.5037C63.259 21.2917 64.5953 22.6934 66.385 22.6934C67.8294 22.6934 68.665 21.7994 69.0109 21.2797L67.9368 20.5544C67.579 21.0862 67.0894 21.4364 66.385 21.4364C65.6813 21.4364 65.1798 21.1102 64.8576 20.4704L69.0701 18.7064L68.9272 18.3434ZM35.3658 17.2927V18.6457H38.5636C38.468 19.4069 38.2177 19.9627 37.8362 20.3497C37.3703 20.8207 36.6421 21.3397 35.3658 21.3397C33.3969 21.3397 31.8569 19.7332 31.8569 17.7397C31.8569 15.7454 33.3969 14.1389 35.3658 14.1389C36.428 14.1389 37.2036 14.5619 37.7762 15.1057L38.7191 14.1509C37.9191 13.3777 36.8577 12.7852 35.3658 12.7852C32.6688 12.7852 30.4014 15.0089 30.4014 17.7397C30.4014 20.4704 32.6688 22.6934 35.3658 22.6934C36.8214 22.6934 37.9191 22.2104 38.7784 21.3037C39.6614 20.4097 39.9362 19.1534 39.9362 18.1379C39.9362 17.8237 39.9125 17.5342 39.8643 17.2927H35.3658ZM43.5725 21.4364C42.6177 21.4364 41.794 20.6392 41.794 19.5037C41.794 18.3554 42.6177 17.5702 43.5725 17.5702C44.5266 17.5702 45.3503 18.3554 45.3503 19.5037C45.3503 20.6392 44.5266 21.4364 43.5725 21.4364ZM43.5725 16.3139C41.8295 16.3139 40.4095 17.6549 40.4095 19.5037C40.4095 21.3397 41.8295 22.6934 43.5725 22.6934C45.3147 22.6934 46.7347 21.3397 46.7347 19.5037C46.7347 17.6549 45.3147 16.3139 43.5725 16.3139ZM50.471 21.4364C49.5162 21.4364 48.6925 20.6392 48.6925 19.5037C48.6925 18.3554 49.5162 17.5702 50.471 17.5702C51.4258 17.5702 52.2488 18.3554 52.2488 19.5037C52.2488 20.6392 51.4258 21.4364 50.471 21.4364ZM50.471 16.3139C48.7288 16.3139 47.3088 17.6549 47.3088 19.5037C47.3088 21.3397 48.7288 22.6934 50.471 22.6934C52.2132 22.6934 53.6332 21.3397 53.6332 19.5037C53.6332 17.6549 52.2132 16.3139 50.471 16.3139Z" fill="#0A0B09"/>
<path fill-rule="evenodd" clip-rule="evenodd" d="M7.72967 5.6602C7.51412 5.8912 7.38745 6.24895 7.38745 6.7132V23.2867C7.38745 23.751 7.51412 24.1087 7.72967 24.3397L7.78449 24.3937L16.9541 15.1095V14.8905L7.78449 5.6062L7.72967 5.6602Z" fill="#60C2E3"/>
<mask id="mask0_6_1148" style="mask-type:alpha" maskUnits="userSpaceOnUse" x="16" y="11" width="9" height="8">
<path fill-rule="evenodd" clip-rule="evenodd" d="M20.0097 18.2054L16.9541 15.1094V14.8904L20.0111 11.7952L23.7015 13.9177C24.7356 14.5132 24.7356 15.4867 23.7015 16.0814L20.08 18.1649L20.0097 18.2054Z" fill="white"/>
</mask>
<g mask="url(#mask0_6_1148)">
<path fill-rule="evenodd" clip-rule="evenodd" d="M20.0097 18.2054L16.9541 15.1094V14.8904L20.0111 11.7952L23.7015 13.9177C24.7356 14.5132 24.7356 15.4867 23.7015 16.0814L20.08 18.1649L20.0097 18.2054Z" fill="url(#paint0_linear_6_1148)"/>
</g>
<mask id="mask1_6_1148" style="mask-type:alpha" maskUnits="userSpaceOnUse" x="7" y="15" width="14" height="10">
<path fill-rule="evenodd" clip-rule="evenodd" d="M20.0801 18.165L16.9542 15L7.72974 24.3398C8.07122 24.705 8.63418 24.75 9.26825 24.3855L20.0801 18.165Z" fill="white"/>
</mask>
<g mask="url(#mask1_6_1148)">
<path fill-rule="evenodd" clip-rule="evenodd" d="M20.0801 18.165L16.9542 15L7.72974 24.3398C8.07122 24.705 8.63418 24.75 9.26825 24.3855L20.0801 18.165Z" fill="url(#paint1_linear_6_1148)"/>
</g>
<mask id="mask2_6_1148" style="mask-type:alpha" maskUnits="userSpaceOnUse" x="7" y="5" width="14" height="11">
<path fill-rule="evenodd" clip-rule="evenodd" d="M20.0801 11.8351L9.26825 5.61463C8.63418 5.25013 8.07122 5.29513 7.72974 5.66038L16.9542 15.0001L20.0801 11.8351Z" fill="white"/>
</mask>
<g mask="url(#mask2_6_1148)">
<path fill-rule="evenodd" clip-rule="evenodd" d="M20.0801 11.8351L9.26825 5.61463C8.63418 5.25013 8.07122 5.29513 7.72974 5.66038L16.9542 15.0001L20.0801 11.8351Z" fill="url(#paint2_linear_6_1148)"/>
</g>
<defs>
<linearGradient id="paint0_linear_6_1148" x1="23.0288" y1="7.37017" x2="5.11995" y2="7.37017" gradientUnits="userSpaceOnUse">
<stop stop-color="#EC942D"/>
<stop offset="1" stop-color="#FBDE1E"/>
</linearGradient>
<linearGradient id="paint1_linear_6_1148" x1="7.45348" y1="10.148" x2="-4.55273" y2="30.1119" gradientUnits="userSpaceOnUse">
<stop stop-color="#DD4245"/>
<stop offset="1" stop-color="#B72162"/>
</linearGradient>
<linearGradient id="paint2_linear_6_1148" x1="-7.46025" y1="1.51533" x2="2.3426" y2="17.8155" gradientUnits="userSpaceOnUse">
<stop stop-color="#6CB966"/>
<stop offset="1" stop-color="#299567"/>
</linearGradient>
</defs>
</svg>
