<svg width="56" height="11" viewBox="0 0 56 11" fill="none" xmlns="http://www.w3.org/2000/svg">
<path opacity="0.29634" fill-rule="evenodd" clip-rule="evenodd" d="M31.4242 0.845703C30.8982 0.845703 30.4719 1.27204 30.4719 1.79795V9.37845C30.4719 9.90436 30.8982 10.3307 31.4242 10.3307C31.9501 10.3307 32.3764 9.90436 32.3764 9.37845V1.79795C32.3764 1.27204 31.9501 0.845703 31.4242 0.845703ZM0 3.38517C0 2.85926 0.426335 2.43292 0.952247 2.43292C1.47816 2.43292 1.90449 2.85926 1.90449 3.38517V8.12017C1.90449 8.64608 1.47816 9.07242 0.952247 9.07242C0.426335 9.07242 0 8.64608 0 8.12017V3.38517ZM26.6641 3.38584C26.6641 2.85993 27.0904 2.43359 27.6163 2.43359C28.1422 2.43359 28.5686 2.85993 28.5686 3.38584V8.02184C28.5686 8.54775 28.1422 8.97408 27.6163 8.97408C27.0904 8.97408 26.6641 8.54775 26.6641 8.02184V3.38584ZM3.80899 4.33367C3.80899 3.80776 4.23532 3.38142 4.76124 3.38142C5.28715 3.38142 5.71348 3.80776 5.71348 4.33367V7.13015C5.71348 7.65606 5.28715 8.0824 4.76124 8.0824C4.23532 8.0824 3.80899 7.65606 3.80899 7.13015V4.33367ZM7.61798 5.28217C7.61798 4.75626 8.04431 4.32992 8.57022 4.32992C9.09614 4.32992 9.52247 4.75626 9.52247 5.28217V6.59043C9.52247 7.11634 9.09614 7.54268 8.57022 7.54268C8.04431 7.54268 7.61798 7.11635 7.61798 6.59043V5.28217ZM12.378 4.33008C11.8521 4.33008 11.4258 4.75641 11.4258 5.28233V7.05686C11.4258 7.58277 11.8521 8.0091 12.378 8.0091C12.9039 8.0091 13.3303 7.58277 13.3303 7.05686V5.28233C13.3303 4.75641 12.9039 4.33008 12.378 4.33008ZM23.8077 2.43359C23.2818 2.43359 22.8555 2.85993 22.8555 3.38584V8.12084C22.8555 8.64675 23.2818 9.07309 23.8077 9.07309C24.3336 9.07309 24.76 8.64675 24.76 8.12084V3.38584C24.76 2.85993 24.3336 2.43359 23.8077 2.43359ZM19.0469 3.75303C19.0469 3.22712 19.4732 2.80078 19.9991 2.80078C20.525 2.80078 20.9514 3.22712 20.9514 3.75303V7.53953C20.9514 8.06544 20.525 8.49178 19.9991 8.49178C19.4732 8.49178 19.0469 8.06544 19.0469 7.53953V3.75303ZM16.1866 3.38086C15.6607 3.38086 15.2344 3.8072 15.2344 4.33311V7.12959C15.2344 7.6555 15.6607 8.08184 16.1866 8.08184C16.7125 8.08184 17.1389 7.6555 17.1389 7.12959V4.33311C17.1389 3.8072 16.7125 3.38086 16.1866 3.38086ZM35.2331 2.43292C34.7072 2.43292 34.2809 2.85926 34.2809 3.38517V8.02117C34.2809 8.54708 34.7072 8.97341 35.2331 8.97341C35.7591 8.97341 36.1854 8.54708 36.1854 8.02117V3.38517C36.1854 2.85926 35.7591 2.43292 35.2331 2.43292ZM38.0899 4.33367C38.0899 3.80776 38.5162 3.38142 39.0421 3.38142C39.5681 3.38142 39.9944 3.80776 39.9944 4.33367V7.17167C39.9944 7.69758 39.5681 8.12392 39.0421 8.12392C38.5162 8.12392 38.0899 7.69758 38.0899 7.17167V4.33367ZM50.4679 3.38086C49.942 3.38086 49.5156 3.8072 49.5156 4.33311V7.94715C49.5156 8.47306 49.942 8.8994 50.4679 8.8994C50.9938 8.8994 51.4201 8.47306 51.4201 7.94715V4.33311C51.4201 3.8072 50.9938 3.38086 50.4679 3.38086ZM41.8989 3.38517C41.8989 2.85926 42.3252 2.43292 42.8511 2.43292C43.377 2.43292 43.8034 2.85926 43.8034 3.38517V8.09462C43.8034 8.62053 43.377 9.04687 42.8511 9.04687C42.3252 9.04687 41.8989 8.62053 41.8989 8.09462V3.38517ZM45.7079 2.43667C45.7079 1.91076 46.1342 1.48442 46.6601 1.48442C47.186 1.48442 47.6124 1.91076 47.6124 2.43667V9.06867C47.6124 9.59458 47.186 10.0209 46.6601 10.0209C46.1342 10.0209 45.7079 9.59458 45.7079 9.06867V2.43667ZM54.2765 4.33008C53.7506 4.33008 53.3242 4.75641 53.3242 5.28233V7.05686C53.3242 7.58277 53.7506 8.0091 54.2765 8.0091C54.8024 8.0091 55.2287 7.58277 55.2287 7.05686V5.28233C55.2287 4.75641 54.8024 4.33008 54.2765 4.33008Z" fill="white"/>
<mask id="mask0_1734_14845" style="mask-type:alpha" maskUnits="userSpaceOnUse" x="0" y="0" width="56" height="11">
<path fill-rule="evenodd" clip-rule="evenodd" d="M31.4242 0.845703C30.8982 0.845703 30.4719 1.27204 30.4719 1.79795V9.37845C30.4719 9.90436 30.8982 10.3307 31.4242 10.3307C31.9501 10.3307 32.3764 9.90436 32.3764 9.37845V1.79795C32.3764 1.27204 31.9501 0.845703 31.4242 0.845703ZM0 3.38517C0 2.85926 0.426335 2.43292 0.952247 2.43292C1.47816 2.43292 1.90449 2.85926 1.90449 3.38517V8.12017C1.90449 8.64608 1.47816 9.07242 0.952247 9.07242C0.426335 9.07242 0 8.64608 0 8.12017V3.38517ZM26.6641 3.38584C26.6641 2.85993 27.0904 2.43359 27.6163 2.43359C28.1422 2.43359 28.5686 2.85993 28.5686 3.38584V8.02184C28.5686 8.54775 28.1422 8.97408 27.6163 8.97408C27.0904 8.97408 26.6641 8.54775 26.6641 8.02184V3.38584ZM3.80899 4.33367C3.80899 3.80776 4.23532 3.38142 4.76124 3.38142C5.28715 3.38142 5.71348 3.80776 5.71348 4.33367V7.13015C5.71348 7.65606 5.28715 8.0824 4.76124 8.0824C4.23532 8.0824 3.80899 7.65606 3.80899 7.13015V4.33367ZM7.61798 5.28217C7.61798 4.75626 8.04431 4.32992 8.57022 4.32992C9.09614 4.32992 9.52247 4.75626 9.52247 5.28217V6.59043C9.52247 7.11634 9.09614 7.54268 8.57022 7.54268C8.04431 7.54268 7.61798 7.11635 7.61798 6.59043V5.28217ZM12.378 4.33008C11.8521 4.33008 11.4258 4.75641 11.4258 5.28233V7.05686C11.4258 7.58277 11.8521 8.0091 12.378 8.0091C12.9039 8.0091 13.3303 7.58277 13.3303 7.05686V5.28233C13.3303 4.75641 12.9039 4.33008 12.378 4.33008ZM23.8077 2.43359C23.2818 2.43359 22.8555 2.85993 22.8555 3.38584V8.12084C22.8555 8.64675 23.2818 9.07309 23.8077 9.07309C24.3336 9.07309 24.76 8.64675 24.76 8.12084V3.38584C24.76 2.85993 24.3336 2.43359 23.8077 2.43359ZM19.0469 3.75303C19.0469 3.22712 19.4732 2.80078 19.9991 2.80078C20.525 2.80078 20.9514 3.22712 20.9514 3.75303V7.53953C20.9514 8.06544 20.525 8.49178 19.9991 8.49178C19.4732 8.49178 19.0469 8.06544 19.0469 7.53953V3.75303ZM16.1866 3.38086C15.6607 3.38086 15.2344 3.8072 15.2344 4.33311V7.12959C15.2344 7.6555 15.6607 8.08184 16.1866 8.08184C16.7125 8.08184 17.1389 7.6555 17.1389 7.12959V4.33311C17.1389 3.8072 16.7125 3.38086 16.1866 3.38086ZM35.2331 2.43292C34.7072 2.43292 34.2809 2.85926 34.2809 3.38517V8.02117C34.2809 8.54708 34.7072 8.97341 35.2331 8.97341C35.7591 8.97341 36.1854 8.54708 36.1854 8.02117V3.38517C36.1854 2.85926 35.7591 2.43292 35.2331 2.43292ZM38.0899 4.33367C38.0899 3.80776 38.5162 3.38142 39.0421 3.38142C39.5681 3.38142 39.9944 3.80776 39.9944 4.33367V7.17167C39.9944 7.69758 39.5681 8.12392 39.0421 8.12392C38.5162 8.12392 38.0899 7.69758 38.0899 7.17167V4.33367ZM50.4679 3.38086C49.942 3.38086 49.5156 3.8072 49.5156 4.33311V7.94715C49.5156 8.47306 49.942 8.8994 50.4679 8.8994C50.9938 8.8994 51.4201 8.47306 51.4201 7.94715V4.33311C51.4201 3.8072 50.9938 3.38086 50.4679 3.38086ZM41.8989 3.38517C41.8989 2.85926 42.3252 2.43292 42.8511 2.43292C43.377 2.43292 43.8034 2.85926 43.8034 3.38517V8.09462C43.8034 8.62053 43.377 9.04687 42.8511 9.04687C42.3252 9.04687 41.8989 8.62053 41.8989 8.09462V3.38517ZM45.7079 2.43667C45.7079 1.91076 46.1342 1.48442 46.6601 1.48442C47.186 1.48442 47.6124 1.91076 47.6124 2.43667V9.06867C47.6124 9.59458 47.186 10.0209 46.6601 10.0209C46.1342 10.0209 45.7079 9.59458 45.7079 9.06867V2.43667ZM54.2765 4.33008C53.7506 4.33008 53.3242 4.75641 53.3242 5.28233V7.05686C53.3242 7.58277 53.7506 8.0091 54.2765 8.0091C54.8024 8.0091 55.2287 7.58277 55.2287 7.05686V5.28233C55.2287 4.75641 54.8024 4.33008 54.2765 4.33008Z" fill="white"/>
</mask>
<g mask="url(#mask0_1734_14845)">
<rect x="-5.71484" y="-3.89648" width="66" height="17.073" fill="#222222"/>
</g>
</svg>
