<svg width="15" height="16" viewBox="0 0 15 16" fill="none" xmlns="http://www.w3.org/2000/svg">
<path fill-rule="evenodd" clip-rule="evenodd" d="M15 7.67603C15 11.8182 11.6421 15.176 7.5 15.176C3.35786 15.176 0 11.8182 0 7.67603C0 3.53389 3.35786 0.176025 7.5 0.176025C11.6421 0.176025 15 3.53389 15 7.67603ZM5 6.17603C5 5.62374 5.44772 5.17603 6 5.17603C6.55228 5.17603 7 5.62374 7 6.17603V9.17603C7 9.72831 6.55228 10.176 6 10.176C5.44772 10.176 5 9.72831 5 9.17603V6.17603ZM9 5.17603C8.44771 5.17603 8 5.62374 8 6.17603V9.17603C8 9.72831 8.44771 10.176 9 10.176C9.55229 10.176 10 9.72831 10 9.17603V6.17603C10 5.62374 9.55229 5.17603 9 5.17603Z" fill="#222222"/>
</svg>
