<svg width="10" height="10" viewBox="0 0 10 10" fill="none" xmlns="http://www.w3.org/2000/svg">
<path d="M9.64823 7.51762C9.64823 7.46206 9.61131 7.40649 9.58669 7.35092C9.4889 7.12924 9.34044 6.93378 9.15334 6.78039C8.96624 6.62699 8.74577 6.51997 8.50977 6.46798L8.37438 6.43094C7.98608 6.31807 7.61684 6.1474 7.279 5.92464C7.14885 5.83905 7.02353 5.74629 6.90361 5.64679C7.02499 5.55149 7.1382 5.44615 7.24207 5.3319C7.33643 5.23841 7.42288 5.13722 7.50054 5.02936C7.68789 4.76759 7.83324 4.47801 7.93131 4.17112C8.02015 3.88314 8.06578 3.58348 8.06669 3.28202C8.06512 2.79164 7.94231 2.30931 7.70925 1.87828C7.47618 1.44724 7.14016 1.08096 6.7313 0.812275C6.46258 0.633949 6.16472 0.504376 5.8513 0.429465C5.61525 0.361682 5.37068 0.328409 5.12515 0.330675C4.34444 0.330673 3.59561 0.64142 3.04299 1.19473C2.49037 1.74803 2.17909 2.49871 2.17746 3.28202C2.17752 4.02797 2.46148 4.74574 2.9713 5.28868C3.07343 5.40652 3.18679 5.51405 3.30977 5.60975C3.19155 5.71516 3.06611 5.81213 2.93438 5.89994C2.54306 6.1879 2.10012 6.39753 1.62977 6.51738C1.39907 6.57252 1.18686 6.6875 1.01438 6.85079C0.861087 6.99457 0.7376 7.16731 0.651005 7.35909C0.56441 7.55087 0.516412 7.75792 0.509766 7.96835C0.509766 8.17755 0.550833 8.38469 0.630622 8.57796C0.710411 8.77123 0.827359 8.94684 0.97479 9.09476C1.12222 9.24268 1.29725 9.36002 1.48987 9.44008C1.6825 9.52013 1.88896 9.56134 2.09746 9.56134H8.12207C8.45988 9.56006 8.78855 9.45113 9.06064 9.25026C9.33274 9.04939 9.53419 8.76698 9.63592 8.44378C9.69584 8.29191 9.73116 8.13141 9.74054 7.96835C9.72856 7.81484 9.69755 7.66343 9.64823 7.51762V7.51762ZM3.08823 3.28202C3.08823 3.01555 3.14064 2.75169 3.24246 2.50558C3.34428 2.25947 3.49351 2.03594 3.6816 1.8478C3.86968 1.65967 4.09292 1.51062 4.33852 1.40921C4.58412 1.3078 4.84726 1.25602 5.11284 1.25683C5.22068 1.2605 5.32788 1.27498 5.43284 1.30005C5.74111 1.3462 6.03417 1.46467 6.28823 1.64581C6.55473 1.83094 6.77239 2.07827 6.92247 2.36653C7.07255 2.65479 7.15056 2.97532 7.14977 3.30054C7.15027 3.48218 7.12542 3.66299 7.07592 3.83771C7.07921 3.84773 7.07921 3.85855 7.07592 3.86858C6.99502 4.16315 6.84523 4.43409 6.639 4.6589L6.60823 4.68977C6.43645 4.88433 6.22709 5.04187 5.99284 5.15285C5.68202 5.29215 5.34152 5.35156 5.00207 5.32573C4.75352 5.30744 4.51097 5.24031 4.28823 5.12815C4.05385 5.00397 3.84504 4.83637 3.67284 4.6342C3.31561 4.27315 3.1069 3.79042 3.08823 3.28202V3.28202ZM8.58977 8.44378C8.46468 8.56628 8.29687 8.63496 8.12207 8.63518H2.09746C1.92119 8.63518 1.75214 8.56493 1.6275 8.43987C1.50286 8.31482 1.43284 8.14521 1.43284 7.96835C1.43094 7.87586 1.44861 7.78401 1.48467 7.69887C1.52074 7.61373 1.57438 7.53722 1.64207 7.4744C1.69775 7.42443 1.76574 7.39032 1.839 7.37561C2.49572 7.2177 3.11209 6.92321 3.64823 6.5112L3.77746 6.40624C3.9098 6.30134 4.0352 6.18791 4.15284 6.06665C4.23114 6.09498 4.31134 6.11767 4.39284 6.13457L4.57746 6.17779H4.6513H4.84823H5.06361L5.43284 6.23953H5.6113L5.79592 6.20249L6.01746 6.14074C6.14083 6.26244 6.27023 6.37784 6.40515 6.48651C6.92748 6.89165 7.52306 7.19148 8.159 7.36944L8.29438 7.40649C8.40595 7.43247 8.50947 7.48547 8.59592 7.56084C8.66065 7.61346 8.71139 7.68134 8.74361 7.75842C8.77584 7.83892 8.79255 7.92483 8.79284 8.01157C8.78186 8.17617 8.70933 8.33054 8.58977 8.44378V8.44378Z" fill="#707070"/>
</svg>
