<svg width="6" height="5" viewBox="0 0 6 5" fill="none" xmlns="http://www.w3.org/2000/svg">
<path fill-rule="evenodd" clip-rule="evenodd" d="M5.23341 1.86403C5.19121 1.73516 5.0829 1.64081 4.95249 1.62032L3.68407 1.42065L3.13273 0.20871C3.07469 0.0814516 2.95053 0 2.81403 0C2.67753 0 2.55337 0.0814516 2.49532 0.20871L1.94399 1.42065L0.675414 1.62032C0.545159 1.64081 0.436842 1.73516 0.394795 1.86403C0.3529 1.99323 0.384588 2.13548 0.476604 2.23258L1.40621 3.21516L1.19064 4.57823C1.16871 4.71548 1.22492 4.85323 1.33507 4.93355C1.39555 4.97758 1.46669 5 1.53784 5C1.59634 5 1.65499 4.98484 1.70816 4.95468L2.81403 4.32435L3.92005 4.95468C3.97322 4.98484 4.03187 5 4.09022 5C4.16136 5 4.23251 4.97758 4.29314 4.93355C4.40329 4.85323 4.4592 4.71548 4.43741 4.57823L4.22169 3.21516L5.1516 2.23258C5.24347 2.13532 5.275 1.99306 5.23341 1.86403Z" fill="#965EFB"/>
</svg>
